<svg t="1679658943480" class="icon" viewBox="0 0 1024 1024" version="1.1" xmlns="http://www.w3.org/2000/svg" p-id="2802" width="200" height="200"><path d="M488.510518 530.87079c73.438593-35.773761 124.139322-110.952998 124.139322-198.077288 0-121.746832-98.697883-220.444714-220.442668-220.444714-121.749902 0-220.443691 98.697883-220.443691 220.444714 0 87.12429 50.700729 162.303526 124.135228 198.077288C168.086741 569.725726 73.47799 683.899068 62.959426 821.72204c-0.917906 2.203178-1.422396 4.544503-1.422396 7.073092 0 10.148128 8.224312 18.371416 18.368346 18.371416 10.149151 0 18.373463-8.223289 18.373463-18.371416l0.916882 0c9.55154-153.714917 136.860041-275.55487 293.006334-275.55487 156.101267 0 283.457864 121.839953 293.006334 275.55487l0.916882 0c0 10.197246 8.223289 18.371416 18.373463 18.371416 10.151197 0 18.368346-8.223289 18.368346-18.371416 0-2.52859-0.550539-4.820796-1.424442-7.023974C710.930213 683.899068 616.322485 569.725726 488.510518 530.87079L488.510518 530.87079 488.510518 530.87079zM208.501196 332.793502c0-101.403504 82.250282-183.701882 183.701882-183.701882 101.406574 0 183.659927 82.298378 183.659927 183.701882 0 101.496625-82.253352 183.751001-183.659927 183.751001C290.751478 516.544503 208.501196 434.290127 208.501196 332.793502L208.501196 332.793502 208.501196 332.793502zM886.780267 821.72204C876.264772 683.899068 781.656021 569.725726 653.891126 530.87079c73.391521-35.773761 124.094296-110.952998 124.094296-198.077288 0-121.704876-98.652857-220.444714-220.399689-220.444714-10.150174 0-20.024056 0.917906-29.712719 2.25332 16.255219 10.148128 31.504528 21.903869 45.007053 35.31225 94.287433 7.760754 168.407548 86.668918 168.407548 182.879144 0 95.943143-73.615625 174.517709-167.447686 182.783976 1.287319 3.079128 2.022053 6.5246 2.022053 10.110265 0 1.237177-0.500397 2.289136-0.689708 3.397377 16.257266 9.410324 31.918967 19.747763 46.61876 31.502481 125.467573 28.063149 220.580814 136.25936 228.708935 268.208555l0.918929 0c0 10.197246 8.268314 18.371416 18.370393 18.371416 10.196223 0 18.370393-8.223289 18.370393-18.371416C888.202663 826.266543 887.653147 823.925219 886.780267 821.72204L886.780267 821.72204 886.780267 821.72204zM886.780267 821.72204" fill="#ffffff" p-id="2803"></path></svg>